/* XPM */
static char *_53844331b264ae8cf4a2e63db3de134EJMBNmucxzTq4qu7[] = {
/* columns rows colors chars-per-pixel */
"15 15 9 1 ",
"  c #754C60",
". c #90625D",
"X c #C49A6C",
"o c #B2C373",
"O c #D4C169",
"+ c #C0D470",
"@ c #C58086",
"# c #E8CFA6",
"$ c #F3F2C0",
/* pixels */
"+++++++++++++++",
"+++++++++++++++",
"++++++...++++++",
"+++++.@@@.+++++",
"++++.$$$$$.++++",
"+++.$$ $$ $.+++",
"+++.$$$$OO$.+++",
"++.$$$$$$$$.+++",
"+.$$$$$$$$$.+++",
"+.#$$$X$$$#.+++",
"++.XXX####.++++",
"++o.OO.OO.o++++",
"+ooo..o..ooo+++",
"++ooooooooo++++",
"+++++++++++++++"
};
