/* XPM */
static char *_a6b643cbe6c421a9978f4a7a16e9821eSj23CHZ0knTlItK[] = {
/* columns rows colors chars-per-pixel */
"15 15 8 1 ",
"  c #713970",
". c #8A4A70",
"X c #AF6776",
"o c #BD757E",
"O c #B2C373",
"+ c #C0D470",
"@ c #E8B5AC",
"# c #F3D8C5",
/* pixels */
"+++++++++++++++",
"+++++++++++++++",
"+++++++....++++",
"++++++.oo##.+++",
"+++++.oo###o.++",
"+++++.Xooooo.++",
"++++.XXXoooX@.+",
"+++...@@XXX@@.+",
"++.ooo.@@XX..++",
"+.XoooX....++++",
"+.XXXXX.@@ O+++",
"++..... ## OO++",
"++O @ OOOOOO+++",
"+OO # O++++++++",
"++OOOO+++++++++"
};
